<svg xmlns="http://www.w3.org/2000/svg" viewBox="0 0 600 272.54" width="198" height="90"><title>Asset 1</title><g id="Layer_2" data-name="Layer 2"><g id="Layer_1-2" data-name="Layer 1"><path d="M4.31,2.28H0V.93H16.17V2.28H11.86V35.54h4.31v1.35H0V35.54H4.31Z"/><path d="M40.17,5.35V31.66c0,3.56.22,3.88,2.91,3.88h2.1v1.35H34.23V35.54h1.4c2.7,0,2.91-.27,2.91-3.88V6.16c0-3.61-.21-3.88-2.91-3.88h-1.4V.93H45.88l17.25,23V6.16c0-3.61-.22-3.88-2.91-3.88h-1.4V.93H69.06V2.28h-1.4c-2.7,0-2.91.32-2.91,3.88V37.27H63.51Z"/><path d="M98.75,2.28H97.29c-3.83,0-5.5.65-7.12,2.64A12.41,12.41,0,0,0,87.75,12H86.29L87,.93H118l.7,11.05h-1.45a12.41,12.41,0,0,0-2.43-7.06c-1.62-2-3.29-2.64-7.12-2.64h-1.46V35.54h4.85v1.35H93.9V35.54h4.85Z"/><path d="M140.51,2.28H136.2V.93h28.36l.81,9.17H164c-.76-3.34-1.62-5-3.13-6.31s-2.91-1.51-6.47-1.51h-6.31V18h1.51c3.18,0,4.74-.65,5.72-2.43A7.47,7.47,0,0,0,156,11.6h1.46V26.27H156c-.21-5.45-1.67-7-6.58-7h-1.4V35.54h5c4.69,0,7.12-.7,8.73-2.59,1.56-1.73,2.48-3.88,3.23-7.49h1.46l-.75,11.43H136.2V35.54h4.31Z"/><path d="M188.87,2.28h-4.31V.93h15.85c6.79,0,9.11.49,11.38,2.26a7.37,7.37,0,0,1,2.86,6.09,8,8,0,0,1-4.26,7.17c-1.67.92-2.59,1.08-6.42,1.29,6.15,1,9.92,5.18,9.92,10.89v1a12.26,12.26,0,0,0-.05,1.29c0,2.91.81,4.15,2.64,4.15a8.2,8.2,0,0,0,2.59-.59v1.4a16.3,16.3,0,0,1-5.88,1.19,6.53,6.53,0,0,1-6.47-3.72c-.81-1.73-1-2.86-1.24-6.85s-.81-6-2.1-7.12c-.92-.81-1.72-1-4-1h-3V35.54h4.31v1.35H184.56V35.54h4.31ZM200.41,17c5.23,0,6.58-1.62,6.58-8,0-3-.49-4.69-1.62-5.66-1-.86-2.1-1.13-5-1.13h-4V17Z"/><path d="M242.79,5.35V31.66c0,3.56.22,3.88,2.91,3.88h2.1v1.35H236.86V35.54h1.4c2.7,0,2.91-.27,2.91-3.88V6.16c0-3.61-.21-3.88-2.91-3.88h-1.4V.93h11.65l17.25,23V6.16c0-3.61-.22-3.88-2.91-3.88h-1.4V.93h10.24V2.28h-1.4c-2.7,0-2.91.32-2.91,3.88V37.27h-1.24Z"/><path d="M295.54,27.24l-2.16,6a4.2,4.2,0,0,0-.43,1.51c0,.59.43.75,1.83.75h2.86v1.35H286.48V35.54h1.89c1.67,0,2.16-.11,2.7-.7.38-.43.38-.48,1-2.37L303.41.93h1.67l12.29,34.61h3.83v1.35H305.08V35.54h4.64l-2.91-8.3Zm5.61-15.64L296,25.89h10.24Z"/><path d="M346.5,2.28H345c-3.83,0-5.5.65-7.12,2.64A12.41,12.41,0,0,0,335.5,12H334l.7-11.05H365.8L366.5,12H365a12.41,12.41,0,0,0-2.43-7.06c-1.62-2-3.29-2.64-7.12-2.64H354V35.54h4.85v1.35H341.64V35.54h4.85Z"/><path d="M388.26,2.28h-4.31V.93h16.17V2.28H395.8V35.54h4.31v1.35H383.94V35.54h4.31Z"/><path d="M452.66,18.93a20.11,20.11,0,0,1-5.82,14.18,17.27,17.27,0,0,1-23.67,0,20.24,20.24,0,0,1,0-28.41A16.33,16.33,0,0,1,435.24,0C445,0,452.66,8.31,452.66,18.93Zm-24.8-13c-1,2.26-1.51,6.42-1.51,13,0,7.93.59,11.92,2.16,14.29,1.45,2.21,3.4,3.18,6.52,3.18,3.56,0,5.77-1.4,7.12-4.42,1-2.26,1.51-6.36,1.51-13.1,0-7.82-.59-11.86-2.16-14.23C440,2.38,438,1.47,434.86,1.47A6.87,6.87,0,0,0,427.85,5.89Z"/><path d="M475.85,5.35V31.66c0,3.56.21,3.88,2.91,3.88h2.1v1.35H469.92V35.54h1.4c2.7,0,2.91-.27,2.91-3.88V6.16c0-3.61-.22-3.88-2.91-3.88h-1.4V.93h11.65l17.25,23V6.16c0-3.61-.22-3.88-2.91-3.88h-1.4V.93h10.25V2.28h-1.4c-2.7,0-2.91.32-2.91,3.88V37.27h-1.24Z"/><path d="M528.6,27.24l-2.16,6a4.26,4.26,0,0,0-.43,1.51c0,.59.43.75,1.83.75h2.86v1.35H519.54V35.54h1.89c1.67,0,2.15-.11,2.7-.7.38-.43.38-.48,1-2.37L536.47.93h1.67l12.29,34.61h3.83v1.35H538.14V35.54h4.64l-2.91-8.3ZM534.2,11.6l-5.12,14.29h10.24Z"/><path d="M575.85,2.28h-4.31V.93h16.17V2.28h-4.31V35.54h4.37c3.72,0,5.88-1,8-3.61a15.14,15.14,0,0,0,2.86-6.36H600l-1,11.32H571.53V35.54h4.31Z"/><path d="M23.81,167.72h7.91v4H.27v-4H8v-112H.27v-4H26.15c13.48,0,20.85,1.62,27.5,6.11,7.55,5.21,11.68,13.84,11.68,24.62,0,10.42-3.59,19.23-10.24,25.34-6.47,5.93-14.74,8.27-28.39,8.27H23.81Zm2.7-55.53c16.17,0,21.75-7.37,21.75-28.22,0-21-5.57-28.22-21.75-28.22h-2.7v56.43Z"/><path d="M94.49,167.72h7.91v4H70.95v-4h7.73v-112H70.95v-4h27c12.4,0,19.59,1.62,25.7,5.57C130.61,62,134.39,70,134.39,80c0,14.74-7,23.36-23.72,28.93,17.43,4.31,22.29,10.78,23.9,30.73L136,155.32c.72,7.73,2.16,10.6,4.85,10.6,1.26,0,2.16-.54,4.13-2.52l2.7,2.7c-4.13,4.49-7.37,6.11-12,6.11-10.06,0-15.28-7.19-16.71-22.82l-1.44-15.63c-1.8-18.15-5.75-22.64-19.41-22.64h-3.6Zm3.42-60.56c14.56,0,19.41-6.47,19.41-25.7,0-8.45-1.26-14.92-3.59-19-2.7-4.85-7-6.65-15.81-6.65H94.49v51.4Z"/><path d="M216,112.55c0,33.61-14.56,60.56-32.89,60.56s-32.71-27-32.71-61.46,14.38-61.28,32.71-61.28C201.82,50.37,216,77.32,216,112.55Zm-47.62,9.88c0,35.94,3.41,46.73,14.74,46.73,11.14,0,14.56-10.78,14.56-46.73V101c0-35.94-3.41-46.73-14.56-46.73-11.32,0-14.74,10.78-14.74,46.73Z"/><path d="M248.7,167.72h7.91v4H225.16v-4h7.73v-112h-7.73v-4H251c13.48,0,20.85,1.62,27.5,6.11,7.55,5.21,11.68,13.84,11.68,24.62,0,10.42-3.59,19.23-10.24,25.34-6.47,5.93-14.74,8.27-28.39,8.27H248.7Zm2.7-55.53c16.17,0,21.75-7.37,21.75-28.22,0-21-5.57-28.22-21.75-28.22h-2.7v56.43Z"/><path d="M319.38,167.72h3.24c19.95,0,28.93-9,32-32.35h4.13l-1.62,36.3H295.84v-4h7.73v-112h-7.73v-4h60V84h-4.14c-.9-9.7-3.05-15.45-7.91-20.67-5-5.39-11.5-7.55-22.1-7.55h-2.34v52.3c13.66.36,19.23-6.11,19.95-22.46h4.13v48.52h-4.13c-.54-15.28-7.19-22.64-19.95-22.29Z"/><path d="M392.84,167.72h7.91v4H369.3v-4H377v-112H369.3v-4h27c12.4,0,19.59,1.62,25.7,5.57C429,62,432.74,70,432.74,80c0,14.74-7,23.36-23.72,28.93,17.43,4.31,22.28,10.78,23.9,30.73l1.44,15.64c.72,7.73,2.16,10.6,4.85,10.6,1.26,0,2.15-.54,4.13-2.52l2.7,2.7c-4.13,4.49-7.37,6.11-12,6.11-10.06,0-15.28-7.19-16.71-22.82l-1.44-15.63c-1.8-18.15-5.75-22.64-19.41-22.64h-3.59Zm3.42-60.56c14.56,0,19.41-6.47,19.41-25.7,0-8.45-1.26-14.92-3.59-19-2.7-4.85-7-6.65-15.81-6.65h-3.42v51.4Z"/><path d="M488.67,167.72h7.91v4H465.12v-4h7.73v-112c-12.94,2.16-21.21,14.38-23.18,34.15h-4.31L447,51.8h67.75l1.62,38.1H512c-2-19.95-10.25-32-23.36-34.15Z"/><path d="M567.42,167.72h7.73v4H543.69v-4h7.91V116.14L527.88,55.76h-7.37v-4h33.07v4H545l20.49,53.55,15.64-43.67a17.56,17.56,0,0,0,1.62-6.11c0-3.06-1.44-3.77-7.91-3.77v-4h23.36v4c-7.73,0-9.34,1.26-12.4,9.89l-18.33,50.5Z"/><path d="M183.33,208.95c3.72,4.79,4.32,12-.48,20.39-4.92,8.87-15,18.11-26.38,24.94.84,4,3.12,6.36,6.72,6.72s8.51-1.32,12.83-4.32c.36-.36,1-.84,1.32-.36s0,.72-.72,1.32c-2.88,2.88-7.91,6.6-14,7.08-6.35.36-10.07-2.52-11.63-7.44-8.27,4.2-17,7-24.46,7-5.51,0-12.11-2.16-11.75-8.88s5.52-12.35,13-17.63c-.6-3.48.24-8,3.6-13.43,8.39-13.55,25.66-21.59,39.21-21.11a37.83,37.83,0,0,1,3.84.36c3-2.4,9.11-7,12.11-4.79C189.33,200.67,186.45,205.83,183.33,208.95ZM131.41,240c1.32,2.88,4.2,4.56,8,4.56a34.48,34.48,0,0,0,3.48-.24c.36-.12.84-.36,1,0s-.36.6-.84.84A13.78,13.78,0,0,1,139,246a11.27,11.27,0,0,1-9.47-4.2c-3.6,3.48-6.36,7.31-7.32,11.27-1.32,5.4,2.16,8.64,6.71,8.64,6.12,0,13.79-2.4,21.59-6.47a34.27,34.27,0,0,1,1.2-14.75,84.87,84.87,0,0,1,5.63-15.23C149.28,228.25,138.85,233.53,131.41,240Zm38.85-35.25a43.17,43.17,0,0,0-36.33,21,20.72,20.72,0,0,0-3.24,10.19c7.8-4.92,17.63-9.23,27.58-13.07A70.73,70.73,0,0,1,172.66,205a16.23,16.23,0,0,0-2.4-.24Zm-7.56,18.59a83.79,83.79,0,0,0-5,15.23,45.45,45.45,0,0,0-1.56,13.55c9.71-6,18.71-14.39,24-23.39,4.44-7.55,4.67-14,1.92-18.35a70.45,70.45,0,0,1-19.31,13Zm12.59-17.87a76.54,76.54,0,0,0-11.63,15.47,73,73,0,0,0,17.39-12A11,11,0,0,0,175.3,205.47Zm1.08-1.2a13.48,13.48,0,0,1,5.87,3.48c1.8-2,4.8-6.12,3.12-7.79C184.05,198.64,179.5,201.15,176.38,204.27Z"/><path d="M373.28,198.87A20.92,20.92,0,0,1,366,199c-8-1-18.11-2.76-26-4.32-13.07,11.63-27.7,27.46-38.49,38.86-22.31,23.62-46.29,39.93-70.39,39-9-.48-18.11-4.67-16.79-18.47.6-5.63,3.24-11.87,7.56-17.87-1.2-.84-5-4.56-4.8-12.23,0-17.39,18.11-41.37,70.51-39.57,16.79.6,36.09,3.84,51.92,7.19a37.32,37.32,0,0,1,11.39-6c1.08-.36,3-.84,2.76,0-.24.6-1.68,1-2,1.08a29.81,29.81,0,0,0-9.11,5.52c7,1.8,16.43,4,24,5.16a23,23,0,0,0,6.6.48c1.2-.12,1.92-.48,2-.24C375.31,198.15,374.23,198.76,373.28,198.87ZM288,188.56c-50-1.8-69.43,18.35-69.19,35.25,0,5.52,1.8,9.47,3.72,11.39a76.27,76.27,0,0,1,15.95-14.87c10.43-7.19,26.74-13.43,40.17-12.59,7.44.6,12.71,4.08,12.23,11.39,0,1.2-.6,1.8-1,1.8-.6-.12-.6-.84-.48-2.4.24-5.39-4.32-9-11-9.23-11.51-.36-27.22,8-36.93,15-13,9.23-24.46,21.1-25.42,31.42-1,11.75,7.56,14.63,15.47,14.87,19.43.48,43.77-19.07,64.16-39.09,15.95-14.75,28.66-27.94,40.77-37.41A407.9,407.9,0,0,0,288,188.56Z"/><path d="M336.45,234.49a15.53,15.53,0,0,1-1.44-1,6,6,0,0,0-3.12-1c-4.92-.24-15.11,7.56-23.27,15.23-7.67,7.31-8.87,9-15.23,17-1.44,0-1.68-3.48-1.08-4.68,3.24-6.12,9.11-13.43,15.47-20a64.67,64.67,0,0,1,10.91-9.6,16.44,16.44,0,0,1,8.39-2,91.28,91.28,0,0,0-16.91,15.23l.36.48c6.59-5.76,19.07-16.67,24.94-15.59a3.13,3.13,0,0,1,2.78,3.45l0,.15C338.13,233.77,336.93,234.61,336.45,234.49Z"/><path d="M347.72,253.32c-3.72,4.56-6.24,7.92-4.44,8.75s8.27-3.72,11.63-6.36c3.83-3,8.51-7.19,11.39-9.71.36-.36,1.08-.72,1.44-.12s-.12,1.08-.6,1.56c-3.48,3-8.27,7.07-11.15,9.47-3.6,2.88-9.71,7.19-12.83,7.19-4.08,0-6.36-3.6-1.92-10.2-7,5.88-13.43,10.2-17.27,10.2-8.16,0-3-12.36,5.28-20.75,9.47-9.71,25.54-18,30.7-15,1.56,1,2,3.72-2.64,8.16,4.8-4,8-6.36,10.07-7.08a12.44,12.44,0,0,1,4.68-.48A302.82,302.82,0,0,0,347.72,253.32Zm-13-7.07c-7.32,7.07-13.07,14.87-10.31,16.07,2.16,1,12.71-6.36,22.9-16.79,4.68-4.8,14.15-13.67,11.63-15.59C356.71,228.13,347.48,234.13,334.77,246.24Z"/><path d="M404,233.89c-2.52,2.76-5.28,5.88-8.28,8.64a189.42,189.42,0,0,1-19.42,15.95c-3.84,2.76-9.35,5.64-12.83,5.64-8,0-5.4-9.6,3.48-18.71a68.82,68.82,0,0,1,22.54-14.87,39.06,39.06,0,0,0-12.71,2c-3.12,1.08-4.08,3.48-4.56,2.4-.6-1.32.48-3.48,3.72-4.56a45.44,45.44,0,0,1,17.39-1.08c.6,0,.72,0,1,.36s-.36.48-.84.84a149.36,149.36,0,0,0-25.9,22.78c-3.72,4.56-6,7.92-4.19,8.75s7.79-2.16,11.87-5.15a119.59,119.59,0,0,0,20.87-19.43c5-5.87,1.68-6.48,2.76-7.8s9.12-3.72,7.91,0A14.16,14.16,0,0,1,404,233.89Z"/><path d="M425,238.81c-3.84,2.64-12.71,5.63-15.11,4.2-7.43,7-15.83,17.39-11.39,19.31,2.16.84,7-.72,11.87-3.84a112.58,112.58,0,0,0,15.23-12.11c.48-.48,1.32-1,1.68-.48s-.12,1.2-.6,1.68a124,124,0,0,1-13.79,11.15c-4.2,3-10,5.88-14.63,5.52-3.12-.36-5.88-2.16-5.4-6.48.12-2.28,1.68-8.15,9.35-15.59,9.12-8.63,23.26-16.31,27.46-13.91C433.59,230.53,429.51,235.57,425,238.81Zm-14.39,3.48c1.8.72,7.79-1.32,13.07-5.52,4-3.12,6.48-6.48,5.28-7.43-1.44-1.2-12.47,7.2-18.35,13Z"/><path d="M485.15,200.19c-3.24.84-7.43,3.72-9.47,5.28-12.23,9.23-23.86,20.27-37.3,34.06-9.71,10-18.83,20.74-16.43,22.42,1.32,1,4.92-.84,10.31-4.56,3.48-2.52,10.31-8.27,13.19-10.79.48-.36,1.2-1.08,1.8-.48s0,1-.59,1.44a158.71,158.71,0,0,1-14,11.51c-4.8,3.36-9.47,5.87-12.23,5.16-4-1.2-3.84-5.4-.36-10.79,2.52-4.08,7.91-10.55,15.47-18.23,13-13.19,26.74-25.3,34.9-30.82a31.58,31.58,0,0,1,7.32-3.6,23,23,0,0,1,7.55-.84Z"/></g></g></svg>