<svg xmlns="http://www.w3.org/2000/svg" viewBox="0 0 600.47 259.37" width="198" height="90"><title>Asset 3</title><g id="Layer_2" data-name="Layer 2"><g id="Layer_1-2" data-name="Layer 1"><path d="M93.54,234.64c0,11.31,3.95,15.73,10,15.73,15.11,0,39.19-35.27,38.28-72.31,22.92-24.17,50.39-62,50.39-92.37,0-7.34-2.08-13.52-10.78-13.52-13.3,0-32.32,22.93-44.37,45.7-11.63,23.59-22.51,50.5-36.95,87.42-3.37,9.26-6.54,20.48-6.54,29.35ZM420.43,184.3v19s9.42,6.81,27.8,6.81c27.9,0,40.15-15.57,40.15-32.55,0-36.81-49.57-28-49.57-52.44,0-9.18,7.31-15.82,19.58-15.82a46.39,46.39,0,0,1,24.88,7.65V99.36a53.69,53.69,0,0,0-24-5.44c-23.85,0-38.72,14.9-38.72,32.79,0,36.39,49.41,29.28,49.41,53,0,10.9-9,14.85-20.55,14.85-16.59,0-29-10.25-29-10.25Zm180,23.2H582.72V144.32q0-35.27-25.75-35.27a27.93,27.93,0,0,0-22,10q-8.71,10-8.71,25.26V207.5H508.51V96.72h17.74v18.39h.43q12.55-21,36.35-21,18.18,0,27.8,11.74t9.63,33.92Zm-199.41,0H383.32V143.89q0-18.39-5.68-26.61t-19.1-8.22q-11.36,0-19.31,10.39t-8,24.88V207.5H313.53V141.73q0-32.67-25.21-32.67-11.68,0-19.26,9.79t-7.57,25.48V207.5H243.75V96.72h17.74v17.53h.43q11.79-20.12,34.4-20.12a32,32,0,0,1,31.38,22.94Q340,94.12,364.49,94.12q36.57,0,36.57,45.12Zm-373,51.86C12.91,259.37,0,249.86,0,228.3,0,195,28.64,169.76,41.63,162.61a262.63,262.63,0,0,0,37,17.21C41.19,156.11,17.25,112.92,17.25,65c0-44.8,23.65-65,45-65,17.18,0,57.9,18.9,57.9,91.4,0,78-40.71,168-92.09,168Z"/></g></g></svg>