<svg xmlns="http://www.w3.org/2000/svg" viewBox="0 0 600 213.94" width="198" height="90"><title>Asset 6</title><g id="Layer_2" data-name="Layer 2"><g id="Layer_1-2" data-name="Layer 1"><g id="Layer"><path id="Layer-2" data-name="Layer" d="M347.74,0c1.39-.21,5.71,1.6,6.27,2.72,1.11,2,.84,5.71-.63,8.08a25.36,25.36,0,0,1-6.9,6.27c-1,.63,13.1,26.76,14.49,26.76,1.11,0,3.69-7.53,4-11.5.35-5-.21-5.78-5.23-6.62-2.51-.42-.91-.56,6.41-.56,9.2,0,9.69.21,3.76,1.53-2,.42-3.07,2.44-3.76,7.32A35.89,35.89,0,0,1,364,41.69c-2.09,5.23-1.88,6,2.51,8.22,3.34,1.67,4.88,1.39,7.18-1.46,1-1.11,1.25-1.18,1.25-.35a5.66,5.66,0,0,1-1.46,2.65c-3.41,3.62-10.1,4.6-14.91,2.16l-2.72-1.39-4,1.39c-9.62,3.28-19.58.63-23.48-6.27-4.25-7.6-1.39-17.28,6.9-23.34,3.21-2.37,3.34-2.58,2.72-4.74-2.09-7.32,1.53-16.17,7.32-17.84,1.18-.35,2.3-.7,2.51-.7Zm-2.86,12a18.46,18.46,0,0,0,.84,3.62c.21.14,1.53-.63,2.93-1.81,4.67-3.83,6.06-8.64,3.14-10.66-4.53-3.21-8.08,1.39-6.9,8.85Zm-6.27,10.94c-.7,0-2.44,2.3-3.76,4.81-2.3,4.53-1.11,13.24,2.51,18.19,3.21,4.25,10.87,6.69,15.68,4.88l1.88-.77-1.46-1.53c-2.09-2.23-10-15.68-12.4-21-1.11-2.51-2.23-4.6-2.44-4.6Z"/><path id="Layer-3" data-name="Layer" d="M18.47,1.62A20.23,20.23,0,0,0,8.85,7.4c-6,5.92-8.5,13-7.94,22.37.63,10.17,6,18.4,14.63,22.51,5.16,2.44,10.1,2.65,18.26.84,4.88-1,5.3-1,6.48,0A4.57,4.57,0,0,0,42,54.3c.28,0,.49-3.9.49-8.71,0-5.37-.28-8.71-.7-8.71s-.7,1-.7,2.09c0,7.46-7.25,14.08-15.4,14.08-10,0-13.66-4.32-15.33-17.56C8.5,20,11.92,6.22,18.33,3.22c2.93-1.39,8.78-1.53,11.85-.28,4.81,2,9.55,7.8,9.55,11.64,0,.77.35,1.39.7,1.39s.7-3,.7-7.67c0-4.25-.14-7.67-.21-7.67a18.25,18.25,0,0,0-2.3,1c-1.81.84-2.58.84-6.2,0C27.32.5,22.16.43,18.47,1.62Z"/><path id="Layer-4" data-name="Layer" d="M69.76.85c9.55.42,16.52,5.37,21,15C92.89,20.16,93,21.06,93,27.47c0,8.78-1.67,13.31-6.76,19S76,54.3,68.64,54.3c-4.67,0-6.27-.35-9.76-2a28.63,28.63,0,0,1-13-13.94c-2.3-5.85-2.3-15.54,0-21.6A25.87,25.87,0,0,1,61.53,1.62,27.12,27.12,0,0,1,69.76.85ZM61.67,3.22C56.31,6.15,54.29,11.72,53.8,25,53.1,45.73,57,53,68.64,53S84.11,45.8,83.48,25C83,11.24,81.11,6.15,75.4,3.15,72.54,1.69,64.46,1.69,61.67,3.22Z"/><path id="Layer-5" data-name="Layer" d="M451.64.85a22.11,22.11,0,0,1,16.59,7.8c5.09,5.64,6.62,10.1,6.69,19.16,0,6.9-.14,7.6-2.3,12a27.4,27.4,0,0,1-11.71,12.4c-3,1.53-4.32,1.74-10.38,1.74-6.41,0-7.25-.14-10.66-2-9.76-5.44-15.47-17.7-13.52-29,1.88-10.52,8.15-18.4,17.07-21.32a27.12,27.12,0,0,1,8.22-.77Zm-8.15,2.51c-5.85,3.55-7.53,8.92-7.6,24.11,0,12.82.84,17.42,4,21,3,3.41,5.57,4.46,10.52,4.53,11.36.07,15.33-6.41,15.33-24.88,0-14.56-2.58-22.3-8.15-24.95-3.48-1.67-11.29-1.6-14.15.14Z"/><path id="Layer-6" data-name="Layer" d="M93.17,2.53l3.62.28L97,23.15l.21,20.35,1.88,3.21a13,13,0,0,0,5.57,5.16c3.28,1.81,4.53,2.09,10.8,2.3s7.46.14,10.87-1.46c4.81-2.16,7.25-5.57,8.15-11.36.42-2.23.7-11.85.7-21.39V2.73h9.76V52.21h-3.48c-1.88,0-3.48.28-3.48.7s3,.7,7.67.7,7.67-.28,7.67-.7-1.53-.7-3.48-.7h-3.48V4.55L153,14.23c3.62,5.37,11.22,16.59,16.86,24.88S180.56,54.23,181,54.3s.84-5.57.84-25.78V2.73h7V10.4c0,4.67.28,7.67.7,7.67s.7-1.18.7-2.65c.07-3.48,2.16-7.94,4.67-9.76a22.26,22.26,0,0,1,9.48-2.93c1.11,0,1.18,1.6,1.18,24.74V52.21h-3.48c-1.88,0-3.48.28-3.48.7s4.32.7,11.5.7,11.5-.28,11.5-.7-1.53-.7-3.48-.7h-3.48V2.53l3.62.49c7.46,1,10.94,4.11,12.68,11.29l1,4.11.07-8.22L232.06,2l-29.41.14c-16.24.07-27.8.21-25.78.35l3.62.28V20.64c0,9.83-.14,17.7-.35,17.49s-5.78-8.29-12.4-18L155.68,2.39,141,2.32c-8,0-12.89.07-10.87.21l3.69.28-.21,20c-.21,19.86-.21,20-2,23.14-4.25,7.53-16.79,9.34-22.23,3.14a15,15,0,0,1-2.79-5c-.49-1.53-.77-10.66-.77-22V2.8l3.69-.28c2-.14-1.67-.21-8.22-.21s-10.24.07-8.22.21Z"/><path id="Layer-7" data-name="Layer" d="M248.08,2.18c7.87-.07,15.4.21,16.79.56,12,3.34,13.94,16.59,3.34,21.88-2.93,1.39-3.34,1.88-2.3,2.23,5.37,1.74,8.57,3.9,10.17,6.83.49.77,1,4.81,1.25,9,.35,5.78.77,7.8,1.74,8.85,1.53,1.67,3.62,1.81,5.71.35.91-.63,1.67-.77,2-.42.7,1.18-3.62,2.86-7.46,2.86-7.6,0-10.31-3.55-10.94-14.29-.28-3.83-.84-7.67-1.32-8.5-1.46-2.65-4.88-3.9-11.43-4.25L249.48,27V52.21H254c2.58,0,4.53.28,4.53.7s-4.53.7-12.2.7-12.2-.28-12.2-.7,1.6-.7,3.48-.7h3.48V2.8l-3.62-.28C235.47,2.39,240.21,2.25,248.08,2.18Zm6.34.84-4.95-.49V25.73h5.85c4.81,0,6.13-.28,7.6-1.46,2.3-1.74,3.55-6.13,3.07-10.8s-2-7.67-4.6-9a24.72,24.72,0,0,0-7-1.46Z"/><path id="Layer-8" data-name="Layer" d="M276.1,2.53l4,.28,7.32,13.94,7.39,14V52.21h-3.48c-1.88,0-3.48.28-3.48.7s4.32.7,11.5.7,11.5-.28,11.5-.7-1.53-.7-3.48-.7h-3.48l.07-11V30.26l6.76-13.59,6.76-13.59,3.48-.42c2.16-.28.28-.42-4.88-.42-5.71,0-7.11.14-4.39.42l4,.42-5.85,12.13c-3.21,6.62-5.92,12.2-6.06,12.26s-12.33-22.3-13-24c-.14-.35,1.6-.77,3.83-.91s-1.88-.21-9.2-.21-11.43.07-9.27.21Z"/><path id="Layer-9" data-name="Layer" d="M381.88,10.05c0,8.29.91,10.73,1.6,4.46C384.32,7.75,388.29,4,395.75,3l3.55-.49V52.21h-3.48c-1.88,0-3.48.28-3.48.7s4.32.7,11.5.7,11.5-.28,11.5-.7-1.53-.7-3.48-.7h-3.48V2.73H410c3.14,0,8.57,2.09,10.38,4a15.21,15.21,0,0,1,4,9.27c0,1.11.35,2.09.7,2.09s.7-3.14.7-8V2h-43.9Z"/><path id="Layer-10" data-name="Layer" d="M470.38,2.53l3.9.28,10.38,25.71c5.71,14.22,10.73,25.78,11.15,25.78s3.55-8,7-17.77,6.48-17.77,6.69-17.77,3.41,7.94,7,17.56c3.83,10,7,17.63,7.53,17.63s4.46-10.1,9.55-24.74C538.4,15.63,542.65,4.06,543,3.57s2.37-.84,4.81-.84h4.11V52.21h-3.48c-1.88,0-3.48.28-3.48.7s3,.7,7.6.7c4.39,0,7.8-.28,8.08-.7s-1-.7-3.41-.7h-3.9V28.38c0-13.1.14-23.62.35-23.41s7.87,11.29,17,24.67S587.6,54,588,54.16c.63.21.84-6.2.84-25.57V2.8l3.69-.28c2-.14,0-.21-4.39-.21s-6.34.07-4.32.21l3.62.28V38.62L585,35.14c-1.32-2-6.9-10.1-12.33-18.12l-10-14.63-14.63-.07c-8,0-12.82.07-10.66.21l4,.28-5.23,15.12c-2.93,8.29-6,17.14-6.83,19.58L527.8,41.9,520.7,22.73c-3.9-10.52-7.11-19.3-7.11-19.51s1.81-.56,4-.7-1.53-.21-8.22-.21-10.73.07-8.92.21l3.28.28,2.51,6.41,2.44,6.41-4.39,12.82c-2.44,7-4.67,12.54-4.88,12.2s-9.55-23.55-14.91-37c-.21-.56.84-.91,3.41-1.11,2-.14-2-.21-8.85-.21s-10.8.07-8.71.21Z"/><path id="Layer-11" data-name="Layer" d="M228.92,64.34c26,12,42.23,39.65,42.23,71.78,0,18.26-4.18,32.89-13.38,47.11-4.39,6.69-15.89,17.84-22.58,21.74a61.66,61.66,0,0,1-57,3.14c-25.64-11.85-42.3-40.07-42.3-71.57,0-41,26.83-74.56,61.67-77.28,11.64-.91,22.09.77,31.36,5.09Zm-37-2.09c-18,4.11-27,19.58-30.24,51.92-.91,9.41-.91,37.49.07,47.18,2.86,29.48,11.64,44.11,29.27,48.85,6,1.53,18.89,1.6,24.81,0,14.08-3.76,22.65-13.52,27-30.94,4.74-18.89,5.09-58.33.63-80.21-4.11-20.49-11.78-31.64-24.74-35.82-5.78-1.88-20.56-2.37-26.83-1Z"/><path id="Layer-12" data-name="Layer" d="M430.31,59.46c-14.08,3.28-24.81,13.52-30,28.64-1.67,4.81-2,6.69-2,13.94-.07,12.33,2.44,19.51,9.41,27.11,6.55,7.18,12.33,10.45,29.9,17.14,29.27,11,38.33,18.26,40.49,32.26,2.72,17.35-14.43,32.68-36.66,32.75-7.25.07-12.33-1.25-19.3-4.88-12.2-6.41-23.9-22.65-25.51-35.54-.28-2.16-.91-4-1.32-4.25-.7-.21-.91,4.81-.91,23.48,0,23,.35,26.62,2,22.16.7-1.74,3.83-4.81,6.13-6,3-1.53,8.22-.91,15.68,2,14.77,5.57,21.11,6.55,31.71,4.67,11-1.88,18.89-5.85,26.34-13.24,19.65-19.58,19.58-48.57-.21-63.14-6.06-4.53-13.24-8-26.9-13.24-24-9.2-35.61-17.49-39.16-28.15-1.67-4.88-1-12.82,1.32-17.84s8.15-10.73,13.73-13.45c4.32-2.09,4.95-2.23,12.54-2.23h8l6.13,3c10.94,5.37,17.84,14.22,19.51,25.16.49,3.14,1.11,4.95,1.67,4.95s.91-3.83.91-17.77c0-14.36-.21-17.77-.91-17.77s-1.32.77-1.81,1.67c-2.16,4-7.94,4.18-18.75.77-9.13-2.86-16.17-3.48-22.09-2.16Z"/><path id="Layer-13" data-name="Layer" d="M0,63.71c0,.84,1.74,1,10,1.18l9.9.21V207.26l-9.76.35c-8.57.28-9.76.49-10,1.53s1.6,1.25,30.52,1.25,30.73-.07,30.52-1.18-1.32-1.25-9.13-1.46l-8.85-.21v-73.1h60.63v73.17H94.77c-8.57,0-9.06.07-9.06,1.39s.49,1.39,30.66,1.39c26.76,0,30.66-.14,30.66-1s-1.46-1-9.2-1c-5.09,0-9.69-.28-10.17-.56-.7-.49-.84-15.26-.7-71.64l.21-71,10-.21c8.15-.14,9.9-.35,9.9-1.18s-4.11-1-30.66-1c-26.76,0-30.66.14-30.66,1s1.46,1,9.06,1h9.06v67.6H43.21V64.76h9.06c7.6,0,9.06-.14,9.06-1s-3.9-1-30.66-1C4.11,62.66,0,62.8,0,63.71Z"/><path id="Layer-14" data-name="Layer" d="M260.63,63.71c0,.84,1.74,1,10,1.18l9.9.21.35,56.79c.35,56.45.35,56.79,1.88,61.32,7.11,20.77,27,31.71,55.26,30.38,15.33-.7,25.23-4.25,33.52-12.06a30.69,30.69,0,0,0,7.6-10.24c5.16-10.52,5.09-8.78,5.37-71l.28-55.54h9.76c8.15,0,9.69-.14,9.69-1s-2.79-1-20.91-1-20.91.14-20.91,1,1.53,1,9.76,1H382l-.21,56.59L381.53,178l-1.88,5.57c-4.74,13.87-14.08,22-28.64,25-19.3,4-35.19-2-42-15.89-4.88-10-4.88-10.24-4.88-72.2V65.1l10-.21c8.15-.14,9.9-.35,9.9-1.18s-4.25-1-31.71-1-31.71.14-31.71,1Z"/><path id="Layer-15" data-name="Layer" d="M482.23,63.71c0,.91,1.53,1,9.76,1h9.76V207.61H492c-9.27,0-9.76.07-9.76,1.39s.49,1.39,58.89,1.39H600V188.8c0-18.75-.14-21.6-1-21.6s-1,.91-1,3.69c0,4.95-1.6,10.94-4.53,16.93-4.39,9-12.89,15.19-25.09,18.47-4.95,1.32-7.6,1.53-24,1.6l-18.47.07-.21-36.1-.14-36H533c10,0,15.26,1.53,20.14,5.92,4.11,3.69,6.13,7.53,7.18,13.52.49,2.79,1.11,4.25,1.74,4.25.84,0,1-4.11,1-25.09,0-21.39-.14-25.09-1-25.09s-1.18,1.11-1.53,3.28c-.91,6.34-2.86,10.38-6.9,14-5.16,4.74-8.5,5.85-19.3,6.2l-8.92.35V64.62l18,.28c16.31.28,18.26.42,22.09,1.81,12.47,4.6,20,15,21.18,29.34.35,4.25.63,5.3,1.67,5.51s1.18-1,1.18-19.3V62.66H535.89c-47.25,0-53.66.14-53.66,1Z"/></g></g></g></svg>