<svg xmlns="http://www.w3.org/2000/svg" viewBox="0 0 600 96.41" width="198" height="90"><title>Asset 2</title><g id="Layer_2" data-name="Layer 2"><g id="Layer_1-2" data-name="Layer 1"><path d="M77.44,88.21C88.21,87.18,99,83.59,99,72.31V35.9l-5.13-5.13L88.21,35.9V63.08l4.62,4.1L82.56,76.41h-.51L71.79,67.69l2.56-2.56V9.74c0-4.1-3.59-6.15-5.64-6.67v-1a10.24,10.24,0,0,1,4.62-1C76.92,1,80,3.08,81,5.64h.51A10.72,10.72,0,0,1,90.26,1a6.5,6.5,0,0,1,3.08.51v1c-1.54.51-4.62,2.56-4.62,8.21V33.85L102.56,21h1c1,1,6.67,6.15,8.21,7.18.51.51,1,.51,2.05.51a7.29,7.29,0,0,0,3.08-1v1.54a7,7,0,0,0-2.56,5.13V65.64c0,13.85-15.38,22.56-35.9,24.1V88.21ZM72.31,2.56c2.05,1.54,4.1,3.08,4.1,6.67V66.15l-2.05,2.05,8.72,7.18,2.56-2.05L79,67.69l1-1V9.74c-.51-4.62-4.62-6.67-7.69-7.18m24.1,82.05c4.1-2.56,8.21-5.64,8.21-11.79v-39l-6.15-6.67-3.08,2.56,5.13,5.64V72.31A16.35,16.35,0,0,1,96.41,84.62Zm25.64-50.77a154.05,154.05,0,0,0,21-12.82h1c4.1,4.1,9.74,10.77,14.87,15.38v1L136.41,51.79V61c2.05,1.54,8.72,4.62,12.82,6.15l9.23-8.72,1,1L141.54,76.92h-1c-6.15-2.56-13.85-6.15-19-8.72a60.11,60.11,0,0,0,1-12.31V33.85Zm21,39.49c-6.15-2.56-11.28-5.13-16.41-7.69.51-1.54.51-4.1.51-9.74V32.82l-3.59,2.05v21c0,5.64,0,9.74-.51,11.28a188.52,188.52,0,0,0,17.44,8.21Zm-6.67-23.08,10.26-6.67c-3.59-4.1-7.18-8.21-10.26-11.28Zm3.08-22.56-2.56,2.05c3.08,3.59,7.18,8.21,11.28,12.82l3.08-2.05c-4.62-4.62-8.72-9.23-11.79-12.82M561.54,88.21c10.77-1,21.54-4.62,21.54-15.9V35.9l-5.13-5.13-5.64,5.13V63.08l4.62,4.1-10.26,9.23h-1l-10.26-8.72,2.56-2.56V9.74c0-4.1-3.59-6.15-5.64-6.67v-1a10.24,10.24,0,0,1,4.62-1c3.59,0,6.67,2.05,7.69,4.62h.51A10.72,10.72,0,0,1,573.85,1a6.5,6.5,0,0,1,3.08.51v1c-1.54.51-4.62,2.56-4.62,8.21V33.85L585.64,21h1c1,1,6.67,6.15,8.21,7.18.51.51,1,.51,2.05.51a7.29,7.29,0,0,0,3.08-1v2.05a7,7,0,0,0-2.56,5.13V65.64c0,13.85-15.38,22.56-35.9,24.1ZM556.41,2.56c1.54,1,4.1,3.08,4.1,6.67V65.64l-2.05,2.05,8.72,7.18,2.56-2.05-6.67-5.64,1-1V9.74c-.51-4.62-4.62-6.67-7.69-7.18M580,84.1c4.1-2.56,8.21-5.64,8.21-11.79V33.85l-6.15-6.67-2.56,2.56,5.13,5.64V72.31A13.26,13.26,0,0,1,580,84.1ZM254.87,33.85A154,154,0,0,0,275.9,21h1c4.1,4.1,9.74,10.77,14.36,14.87v1L269.23,51.28v9.23a100.84,100.84,0,0,0,12.82,6.15l9.23-8.72,1,1L274.36,76.41h-1c-6.15-2.56-13.85-6.15-19-8.72a60.11,60.11,0,0,0,1-12.31V33.85Zm20.51,39.49c-6.15-2.56-11.28-5.13-16.41-7.69.51-1.54.51-4.1.51-9.74V32.82l-3.08,1.54v21c0,5.64,0,9.74-.51,11.28a188.52,188.52,0,0,0,17.44,8.21Zm-6.15-23.59,10.26-6.67c-3.59-4.1-7.18-8.21-10.26-11.28Zm3.08-22.05-3.08,2.05c3.08,3.59,7.18,8.21,11.28,12.82l3.08-2.05c-4.1-4.62-8.21-9.23-11.28-12.82M311.79,8.21V62.05a6.09,6.09,0,0,0,4.1,5.13L319,64.1l1,1L308.72,76.92h-1c-4.1-1-10.26-5.13-10.26-11.79V14.87l-3.08-3.08-3.59,3.59-1-1L302.56,1h1Zm-1.54,64.62c-4.1-1-8.21-3.59-8.21-9.23V12.82l-4.62-4.62-2.56,2.56,4.1,3.59V65.13c0,5.64,4.62,9.23,8.72,10.26Zm14.87-39a154.05,154.05,0,0,0,21-12.82h1c4.1,4.1,9.74,10.77,14.36,14.87v1L339.49,51.28v9.23c2.05,1.54,8.72,4.62,12.82,6.15l9.23-8.72,1,1L344.62,76.41h-1c-6.15-2.56-13.85-6.15-19-8.72a60.11,60.11,0,0,0,1-12.31V33.85Zm20.51,39.49c-6.15-2.56-11.28-5.13-16.41-7.69.51-1.54.51-4.1.51-9.74V32.82l-3.08,1.54v21c0,5.64,0,9.74-.51,11.28a188.52,188.52,0,0,0,17.44,8.21Zm-6.15-23.59,10.26-6.67c-3.59-4.1-7.18-8.21-10.26-11.28Zm3.08-22.05L340,29.74c3.08,3.59,7.18,8.21,11.28,12.82l2.56-2.05c-4.1-4.62-8.21-9.23-11.28-12.82m91.28,8.21V62.05c0,2.05,2.05,4.62,4.1,4.62L441,63.59l1,1L430.77,76.41h-.51c-4.1-1-10.26-4.62-10.26-11.79V34.87l-3.08-3.08-3.59,3.08-1-1L425.13,21h1l8.21,8.21v4.62l10.26-12.31h1a58.63,58.63,0,0,0,8.21,7.18L445.13,39c-2.56-2.05-5.64-5.13-7.69-6.67Zm-1,36.92c-4.1-1-8.21-3.59-8.21-9.23V32.82l-4.1-4.62-2.56,2.56,3.59,3.59V64.62c0,5.64,4.62,9.23,8.72,10.26Zm5.64-41.54a67,67,0,0,0,6.15,5.64l2.05-2.56c-2.05-1.54-5.13-4.62-6.67-5.64Zm28.72,45.64-12.31-8.21V52.31c3.08-2.05,9.74-6.67,12.82-8.72-5.13-2.56-9.23-5.64-11.79-9.23v-1A80.35,80.35,0,0,0,472.82,21h1s15.38,7.18,15.9,7.69a3.88,3.88,0,0,0,2.05.51,7.29,7.29,0,0,0,3.08-1v1.54c-1,1-2.56,2.56-2.56,4.62V61.54c0,3.08,2.56,4.62,4.62,5.13L500,63.59l1,1L489.74,76.41h-.51c-4.62-1-9.74-5.64-10.26-10.77L468.21,76.41h-1Zm2.56-4.1-10.26-6.67V50.77l-3.08,2.05V67.69l11.28,7.18Zm8.72-26.67V37.95l-14.87-7.69c-1,1-5.13,3.08-6.15,4.1,3.59,4.1,12.82,9.74,21,11.79m13.33,26.67c-4.1-1.54-8.21-4.1-8.21-9.74V34.87l-15.38-7.69c-.51.51-2.05,1.54-2.56,2.05l14.87,7.69V64.62c0,5.13,5.13,9.23,8.72,10.77ZM478.46,64.1V47.69a74.77,74.77,0,0,1-9.74-3.59V64.62l5.64,3.59Zm-111.28,4.1V33.85L385.64,21h1c3.59,1.54,15.38,6.67,16.41,7.18.51,0,1,.51,2.05.51a13,13,0,0,0,3.59-1v2.05c-1,1-2.56,3.08-2.56,4.62V63.59c0,6.67,1.54,10.77,4.1,13.33v1c-4.1,4.1-13.33,13.85-17.44,18.46h-.51c-4.1-2.05-10.77-4.1-15.9-4.1-4.1,0-8.72,1-11.79,3.59l-1-.51c3.08-7.18,9.74-14.87,18.46-14.87,5.13,0,12.31,2.05,18.46,5.64-4.1-4.62-7.69-13.33-7.69-20L382.05,76.41h-1Zm8.72,20a12.69,12.69,0,0,0-9.74,4.62v.51c2.56-1.54,5.13-2.05,9.74-2.05,5.13,0,12.31,1.54,15.9,3.59l2.05-2.56a46.28,46.28,0,0,0-17.95-4.1M380,75.38l2.56-2.05-10.77-7.69V32.82l-3.08,2.05V67.69Zm16.41-42.56L381,26.67v3.08l11.79,5.13V65.64c0,6.67,3.08,13.85,7.69,19.49l2.56-2.56c-4.1-5.13-6.67-10.77-6.67-17.44ZM391.79,64.1V35.9l-10.26-4.62V63.59l6.67,4.1ZM523.08,33.85,536.41,21h1c1,1,7.18,6.67,8.21,7.18a1.88,1.88,0,0,0,1.54.51,7.29,7.29,0,0,0,3.08-1v2.05c-1,1-2.56,3.08-2.56,5.13V67.69c-5.64,1.54-10.26,4.62-15.38,10.26h-.51l-8.72-2.05v7.18l4.62,4.1-10.77,9.23h-.51l-10.26-8.72,2.56-3.08V72.31a12.07,12.07,0,0,1-4.1-1V69.74c1-.51,4.62-3.59,4.62-6.15V35.38l-3.08-3.08-3.59,3.59-1-1,12.82-12.82h1l8.21,8.21v3.59ZM510.26,85.64l-2.05,2.05,8.21,7.18L519,92.82l-6.67-5.64,1-1V32.82l-4.62-4.62-2.05,2.05,3.59,3.59V85.64Zm23.08-20V35.9l-5.13-5.13-5.64,5.13V63.08c2.56,1,9.74,2.05,10.77,2.56m-1.54,10.77a11.19,11.19,0,0,1,2.05-2.56l-11.28-2.05v3.08Zm-2.56-46.15,5.64,5.64V65.64l3.08-1.54V33.85l-6.15-6.15ZM4.1,46.67c0-13.33,9.74-22.05,19-26.15l.51,1c-3.08,3.59-5.13,7.18-5.13,15.38,0,9.23,2.56,15.38,6.15,19.49a10.75,10.75,0,0,0,2.05-5.64V37.44L43.08,25.64l.51,1a11.42,11.42,0,0,0-2.05,6.67v8.72c0,6.15-9.74,12.82-15.9,14.87,4.1,4.1,9.74,5.64,15.9,5.64a25,25,0,0,0,6.15-.51V24.62a68.11,68.11,0,0,1-15.38-3.08C27.18,20,22.05,18.46,17.95,18.46c-6.67,0-14.87,2.05-14.87,11.79v3.08l-1.54.51A28.45,28.45,0,0,1,0,25.13C0,13.33,8.72,3.08,22.56,3.08c5.64,0,11.28,1.54,16.41,3.08S49.23,9.23,54.36,9.23a3.77,3.77,0,0,0,4.1-4.1c0-2.56-1-3.59-3.08-4.1V0c6.15,1,12.31,4.62,12.31,12.31.51,7.69-6.15,12.31-17.44,12.31h-1V62.56c7.18-1.54,12.31-4.62,15.9-10.77l1,.51c-4.1,12.82-13.85,25.13-30.77,25.13S4.1,67.18,4.1,46.67M50.26,20c-12.31,0-23.59-6.15-32.31-6.15-6.15,0-12.82,2.56-14.87,9.23h.51c2.56-4.62,8.72-6.15,14.36-6.15,9.23,0,20,6.15,32.31,6.15,9.74,0,15.9-3.59,16.41-11.28h-.51C65.13,17.95,60,20,50.26,20M14.87,27.69c-4.62,4.62-8.72,10.77-8.72,19C6.15,66.15,19,75.9,35.9,75.9c10.26,0,17.44-5.64,21.54-9.74l-.51-.51c-4.62,4.1-11.28,7.18-21.54,7.18-13.33,0-26.15-8.21-26.15-26.15A36.06,36.06,0,0,1,14.87,27.69ZM31.28,49.74V35.38l-3.08,2.56V51.28c0,1.54-.51,2.56-.51,3.59h.51c1.54-1.54,3.08-3.08,3.08-5.13m155.38-3.08c0-13.33,9.74-22.05,19-26.15l.51,1c-3.59,4.1-5.64,7.69-5.64,15.38,0,9.23,2.56,15.38,6.15,19.49a10.75,10.75,0,0,0,2.05-5.64V37.44l16.92-12.31.51,1c-1.54,2.05-2.05,4.1-2.05,7.18v8.72c0,6.15-9.74,12.82-15.9,14.87,4.1,4.1,9.74,5.64,15.9,5.64a25,25,0,0,0,6.15-.51V24.62a68.11,68.11,0,0,1-15.38-3.08c-5.13-1.54-10.26-3.08-14.36-3.08-6.67,0-14.87,2.05-14.87,11.79v3.08l-1,.51a28.45,28.45,0,0,1-1.54-8.72c0-11.79,8.72-22.05,22.56-22.05,5.64,0,11.28,1.54,16.41,3.08s10.26,3.08,15.38,3.08a3.77,3.77,0,0,0,4.1-4.1c0-2.56-1-3.59-3.08-4.1V0c6.15,1,12.31,4.62,12.31,12.31,0,9.23-6.67,13.33-17.95,13.33h-1V63.59C239,62.05,244.1,59,247.69,52.82l1,.51c-4.1,12.82-13.85,25.13-30.77,25.13-16.92-1-31.28-11.28-31.28-31.79M232.82,20c-12.31,0-23.59-6.15-32.31-6.15-5.64,0-12.31,2.56-14.87,9.23h.51c2.56-4.62,8.72-6.15,14.36-6.15,9.23,0,20,6.15,32.31,6.15,9.74,0,15.9-3.59,16.41-11.28h-.51c-1.54,6.15-6.15,8.21-15.9,8.21m-35.38,7.69c-4.62,4.62-8.72,10.77-8.72,19,0,19.49,12.82,29.23,29.74,29.23,10.26,0,17.44-5.64,21.54-9.74l-.51-.51c-4.62,4.1-11.28,7.18-21.54,7.18-13.33,0-26.15-8.21-26.15-26.15A36.06,36.06,0,0,1,197.44,27.69Zm16.41,22.05V35.38l-3.08,2.05V50.77c0,1.54-.51,2.56-.51,3.59h.51c1.54-1,3.08-2.56,3.08-4.62"/></g></g></svg>