<svg xmlns="http://www.w3.org/2000/svg" viewBox="0 0 600.1 197.8" width="198" height="90"><title>Asset 5</title><g id="Layer_2" data-name="Layer 2"><g id="Layer_1-2" data-name="Layer 1"><path d="M547.29,171.69a26.41,26.41,0,1,1,26.4,26.1,26.25,26.25,0,0,1-26.4-26.1Zm52.51-39.91H549.89V5.16H599.8ZM222.14,3V47.57H179.73v23.8h38.61v46.81H179.73v24.3h42.41v49.31H130.72V3Zm60,139.52h30.21v49.31H231.94V3h50.21V142.49ZM49.61,70h19.8V3.06h49V191.59H69.71l.3-70.11-19.8.3v69.71H0V3H49.61Zm325.85,72.51h30.21v49.31c0-.3-80.41,0-80.41,0V3h50.31c-.1,0-.1,139.82-.1,139.52ZM529.09,23.07c5,6.6,6.9,18.2,7.2,28.6l-.3,83.91c-.6,22-13.2,45.51-32.41,53.11-19.2,9.1-49.31,7.5-66.31-5.3-14.8-11.3-22.3-27.6-22.9-45.91V44.17c1.3-13.2,8.2-27.6,18.5-33.91A52.24,52.24,0,0,1,459,1.16c20.2-2.6,55.31-2.9,70.11,21.9Zm-46.51,24.2c-2.8-2.8-7.2-2.8-10.7-1.9a9.74,9.74,0,0,0-5.7,7.5v82.31a9.87,9.87,0,0,0,6.3,7.5,11.94,11.94,0,0,0,7.9-.3c2.5-1.9,5-3.1,5-8.2V52.77a10.73,10.73,0,0,0-2.8-5.5Z"/></g></g></svg>