<svg xmlns="http://www.w3.org/2000/svg" width="17" height="17" fill="none"><path d="M16.738 7.092a.727.727 0 01-.262.483l-3.652 3.56.865 5.03c.008.067.011.134.01.201a.594.594 0 01-.106.357.356.356 0 01-.307.146.812.812 0 01-.402-.121l-4.515-2.373-4.517 2.374a.851.851 0 01-.402.12.366.366 0 01-.317-.145.595.595 0 01-.106-.357c.003-.067.01-.134.02-.201l.865-5.03-3.66-3.56A.766.766 0 010 7.092c0-.248.19-.402.568-.463l5.05-.734 2.258-4.576c.127-.275.292-.413.493-.413s.365.138.493.413l2.263 4.577 5.05.734c.38.063.568.218.568.463h-.005z" fill="#111"/></svg>