<svg width="143" height="142" fill="none" xmlns="http://www.w3.org/2000/svg"><path d="M71.66 141.74a70.427 70.427 0 01-50.11-20.76A70.389 70.389 0 01.79 70.87a70.369 70.369 0 0120.76-50.11A70.369 70.369 0 0171.66 0a70.39 70.39 0 0150.109 20.76 70.412 70.412 0 0120.75 50.11 70.41 70.41 0 01-20.75 50.11 70.445 70.445 0 01-50.11 20.76zm0-140.35a69 69 0 00-49.13 20.35A69.002 69.002 0 002.18 70.87 69.002 69.002 0 0022.53 120a69 69 0 0049.13 20.35A69.01 69.01 0 00120.788 120a68.98 68.98 0 0015.098-22.526 68.975 68.975 0 005.252-26.604 68.972 68.972 0 00-5.252-26.604 68.984 68.984 0 00-15.098-22.526 68.997 68.997 0 00-49.13-20.35z" fill="#000"/><path d="M70.91 62.48a18.31 18.31 0 00-13.63 6.12l4.5-29h24.23v-1.34H60.6l-5.22 33.52h1.17l.21-.3a17.2 17.2 0 0114.15-7.59c9.79 0 17.74 8.57 17.74 19.12s-7.95 19.12-17.74 19.12a17.72 17.72 0 01-16.14-11.16h-1.51a19.13 19.13 0 0017.64 12.55c10.55 0 19.13-9.2 19.13-20.51 0-11.31-8.57-20.53-19.12-20.53z" fill="#000"/></svg>