<svg width="143" height="142" fill="none" xmlns="http://www.w3.org/2000/svg"><path d="M71.13 141.74a70.427 70.427 0 01-50.11-20.76A70.39 70.39 0 01.26 70.87a70.368 70.368 0 0120.76-50.11A70.369 70.369 0 0171.13 0a70.39 70.39 0 0150.13 20.76 70.414 70.414 0 0120.76 50.11 70.427 70.427 0 01-20.76 50.11 70.439 70.439 0 01-50.13 20.76zm0-140.35A69 69 0 0022 21.74 69.002 69.002 0 001.65 70.87 69.001 69.001 0 0022 120a69 69 0 0049.13 20.35A69.01 69.01 0 00120.26 120a68.995 68.995 0 0020.35-49.13 69.01 69.01 0 00-20.35-49.13A68.996 68.996 0 0071.13 1.39z" fill="#000"/><path d="M65.349 67.48h15l5.08 8.81-6.56 11.36c.49.08 1 .15 1.49.2l6.28-10.87h10.16l3.41 5.9c.38-.26.76-.53 1.13-.81l-3.34-5.78 5.08-8.81h8.63c.15-.45.28-.92.41-1.38h-9l-5.08-8.81 7.47-12.94a26.631 26.631 0 016.35 5.47 29.327 29.327 0 00-1.25-3.32 27.63 27.63 0 00-18.85-7.43 27.76 27.76 0 00-27.72 27.72 27.62 27.62 0 007.06 18.45c1.07.503 2.168.94 3.29 1.31a26.31 26.31 0 01-9.04-19.07zm36.48-.69l-5.08 8.8h-10.16l-5.09-8.8 5.09-8.8h10.16l5.08 8.8zm-10.16-26.33a26.19 26.19 0 0112.55 3.19l-7.47 12.95h-10.16l-7.48-12.95a26.23 26.23 0 0112.56-3.19zm-13.76 3.89l7.47 12.94-5.08 8.81h-15a26.349 26.349 0 0112.61-21.75z" fill="#000"/><path d="M83.519 92.26a33.77 33.77 0 01-33.73-33.73A33.769 33.769 0 0183.52 24.8a33.77 33.77 0 0133.73 33.73 33.773 33.773 0 01-33.73 33.73zm0-66.07a32.38 32.38 0 00-32.35 32.34 32.38 32.38 0 0032.35 32.34 32.38 32.38 0 0032.34-32.34 32.379 32.379 0 00-32.34-32.39v.05z" fill="#000"/><path d="M57.41 83.97L37.6 103.78l1 1 19.82-19.82c-.36-.33-.69-.7-1.01-.99z" fill="#000"/></svg>