<svg width="142" height="142" fill="none" xmlns="http://www.w3.org/2000/svg"><path d="M60.54 83.89a23.28 23.28 0 01-15.88-6.24 7.59 7.59 0 00-5.17-2h-7.73a.79.79 0 01-.68-1.18l5.12-8.88a7.69 7.69 0 001-4.11v-.91a23.37 23.37 0 0123.34-23.35h.33a23.17 23.17 0 0116.15 6.86 23.16 23.16 0 016.86 16.14 23.17 23.17 0 01-6.72 16.72 23.149 23.149 0 01-16.62 6.95zM32.8 74.24h6.69a9 9 0 016.13 2.41 21.9 21.9 0 0014.92 5.85 21.79 21.79 0 0015.63-6.54 21.771 21.771 0 006.32-15.73 21.81 21.81 0 00-6.45-15.18 21.83 21.83 0 00-15.18-6.46h-.32a22 22 0 00-22 22v.86a9 9 0 01-1.21 4.86l-4.53 7.93z" fill="#000"/><path d="M105.53 86.26a7.658 7.658 0 01-1-4.1v-.93a23.37 23.37 0 00-18-22.7c0 .47.06 1 .08 1.44a22 22 0 0116.49 21.26v.87a9.009 9.009 0 001.21 4.85l4.6 8h-6.65a9 9 0 00-6.13 2.4 21.857 21.857 0 01-14.92 5.86 21.791 21.791 0 01-15.63-6.54 21.78 21.78 0 01-5.64-10c-.49 0-1 0-1.45-.08a23.16 23.16 0 006.1 11 23.143 23.143 0 0016.62 7 23.276 23.276 0 0015.88-6.24 7.589 7.589 0 015.17-2h7.73a.778.778 0 00.68-1.18l-5.14-8.91z" fill="#000"/><path d="M70.87 141.74a70.426 70.426 0 01-50.11-20.76A70.389 70.389 0 010 70.87a70.369 70.369 0 0120.76-50.11A70.369 70.369 0 0170.87 0a70.41 70.41 0 0150.11 20.76 70.412 70.412 0 0120.75 50.11 70.41 70.41 0 01-20.75 50.11 70.454 70.454 0 01-50.11 20.76zm0-140.35a69 69 0 00-49.13 20.35A69 69 0 001.39 70.87 69.002 69.002 0 0021.74 120a69 69 0 0049.13 20.35A69.004 69.004 0 00119.99 120a68.995 68.995 0 0020.35-49.13 69 69 0 00-20.35-49.13A68.997 68.997 0 0070.87 1.39z" fill="#000"/></svg>