<svg width="143" height="142" fill="none" xmlns="http://www.w3.org/2000/svg"><path d="M113.26 61.98l-16.52-20a.711.711 0 00-.54-.25H46.64a.69.69 0 00-.53.25l-16.52 20a.71.71 0 000 .89l41.3 50.05a.713.713 0 00.16.13h.07c.083.035.17.056.26.06a.753.753 0 00.26-.06h.07l.16-.13 41.3-50.05a.706.706 0 00.09-.89zm-30.53 1.14l-11.32 46.47-11.69-46.47h23.01zm-22.64-1.39l11.32-18 11 18H60.09zm36.19-18.15l15 18.15H84.89l11.39-18.15zM83.62 61.11l-11-18h22.29l-11.29 18zm-24.78 0l-11-18h22.29l-11.29 18zm-1.24.62h-26l15-18.13 11 18.13zm.69 1.39L70 109.67 31.6 63.12h26.69zm25.86 0h27.1l-38.44 46.59 11.34-46.59z" fill="#000"/><path d="M71.39 141.74a70.445 70.445 0 01-50.11-20.76A70.416 70.416 0 01.53 70.87a70.41 70.41 0 0120.73-50.11A70.39 70.39 0 0171.37 0a70.37 70.37 0 0150.11 20.76 70.382 70.382 0 0120.76 50.11 70.402 70.402 0 01-20.76 50.11 70.424 70.424 0 01-50.09 20.76zm0-140.35a69 69 0 00-49.13 20.35A69 69 0 001.91 70.87 69.002 69.002 0 0022.26 120a69 69 0 0049.13 20.35A69.01 69.01 0 00120.52 120a68.995 68.995 0 0020.35-49.13 69.009 69.009 0 00-20.35-49.13A69.002 69.002 0 0071.39 1.39z" fill="#000"/></svg>